<?xml version="1.0" standalone="no"?><!DOCTYPE svg PUBLIC "-//W3C//DTD SVG 1.1//EN" "http://www.w3.org/Graphics/SVG/1.1/DTD/svg11.dtd"><svg t="1709566654644" class="icon" viewBox="0 0 1024 1024" version="1.1" xmlns="http://www.w3.org/2000/svg" p-id="5124" xmlns:xlink="http://www.w3.org/1999/xlink" width="32" height="32"><path d="M263.802377 224.219482a7.964444 7.964444 0 0 1 11.263425 0l236.934198 236.934198 236.934198-236.934198a7.964444 7.964444 0 0 1 11.263425 0l39.582895 39.582895a7.964444 7.964444 0 0 1 0 11.263425l-236.934198 236.934198 236.934198 236.934198a7.964444 7.964444 0 0 1 0 11.263425l-39.582895 39.582895a7.964444 7.964444 0 0 1-11.263425 0l-236.934198-236.934198-236.934198 236.934198a7.964444 7.964444 0 0 1-11.263425 0l-39.582895-39.582895a7.964444 7.964444 0 0 1 0-11.263425l236.934198-236.934198-236.934198-236.934198a7.964444 7.964444 0 0 1 0-11.263425l39.582895-39.582895z" fill="#1D1F24" p-id="5125"></path></svg>