<?xml version="1.0" standalone="no"?><!DOCTYPE svg PUBLIC "-//W3C//DTD SVG 1.1//EN" "http://www.w3.org/Graphics/SVG/1.1/DTD/svg11.dtd"><svg t="1709798463562" class="icon" viewBox="0 0 1024 1024" version="1.1" xmlns="http://www.w3.org/2000/svg" p-id="5162" xmlns:xlink="http://www.w3.org/1999/xlink" width="16" height="16"><path d="M525.226667 853.333333h-26.88a455.253333 455.253333 0 0 1-348.16-160.853333 273.92 273.92 0 0 1-3.84-348.586667L149.76 341.333333a451.84 451.84 0 0 1 354.133333-170.666666h16.213334a452.266667 452.266667 0 0 1 354.133333 170.666666l3.413333 3.84a274.346667 274.346667 0 0 1-3.84 349.013334A455.253333 455.253333 0 0 1 525.226667 853.333333z m-21.333334-597.333333a368.64 368.64 0 0 0-288 136.96l-2.56 4.266667a188.586667 188.586667 0 0 0 2.986667 240.213333A370.346667 370.346667 0 0 0 498.346667 768h26.88A369.066667 369.066667 0 0 0 810.666667 637.013333a188.16 188.16 0 0 0 0-240.213333l-2.986667-3.84A368.64 368.64 0 0 0 520.106667 256z" p-id="5163"></path><path d="M512 640a128 128 0 1 1 128-128 128 128 0 0 1-128 128z m0-170.666667a42.666667 42.666667 0 1 0 42.666667 42.666667 42.666667 42.666667 0 0 0-42.666667-42.666667z" p-id="5164"></path></svg>