<?xml version="1.0" standalone="no"?><!DOCTYPE svg PUBLIC "-//W3C//DTD SVG 1.1//EN" "http://www.w3.org/Graphics/SVG/1.1/DTD/svg11.dtd"><svg t="1709470467229" class="icon" viewBox="0 0 1024 1024" version="1.1" xmlns="http://www.w3.org/2000/svg" p-id="9911" xmlns:xlink="http://www.w3.org/1999/xlink" width="32" height="32"><path d="M512 47.542857C256 47.542857 47.542857 256 47.542857 512S256 976.457143 512 976.457143 976.457143 768 976.457143 512 768 47.542857 512 47.542857z m197.485714 625.371429H314.514286c-25.6 0-43.885714-18.285714-43.885715-43.885715S288.914286 585.142857 314.514286 585.142857h394.971428c25.6 0 43.885714 18.285714 43.885715 43.885714s-18.285714 43.885714-43.885715 43.885715z m0-234.057143H314.514286c-25.6 0-43.885714-18.285714-43.885715-43.885714s18.285714-43.885714 43.885715-43.885715h394.971428c25.6 0 43.885714 18.285714 43.885715 43.885715s-18.285714 43.885714-43.885715 43.885714z" fill="#FBAD27" p-id="9912"></path></svg>