<?xml version="1.0" standalone="no"?><!DOCTYPE svg PUBLIC "-//W3C//DTD SVG 1.1//EN" "http://www.w3.org/Graphics/SVG/1.1/DTD/svg11.dtd"><svg t="1709470519133" class="icon" viewBox="0 0 1024 1024" version="1.1" xmlns="http://www.w3.org/2000/svg" p-id="12018" xmlns:xlink="http://www.w3.org/1999/xlink" width="32" height="32"><path d="M512 1024a512 512 0 1 1 512-512 512 512 0 0 1-512 512z m206.994286-615.424a73.289143 73.289143 0 0 0-103.862857-103.424L512 408.576 408.868571 305.152a73.289143 73.289143 0 0 0-103.862857 103.424L408.868571 512 305.005714 615.424a73.289143 73.289143 0 0 0 103.862857 103.424L512 615.424l103.131429 103.424a73.289143 73.289143 0 0 0 103.862857-103.424L615.131429 512z" fill="#707070" p-id="12019"></path></svg>