<?xml version="1.0" standalone="no"?><!DOCTYPE svg PUBLIC "-//W3C//DTD SVG 1.1//EN" "http://www.w3.org/Graphics/SVG/1.1/DTD/svg11.dtd"><svg t="1710243872510" class="icon" viewBox="0 0 1117 1024" version="1.1" xmlns="http://www.w3.org/2000/svg" p-id="26604" width="69.8125" height="64" xmlns:xlink="http://www.w3.org/1999/xlink"><path d="M861.09040625 468.36366313h-581.81782875a43.63633687 43.63633687 0 1 1 0-87.27267469h581.81782875c72.17450156 0 130.90901156-58.73451 130.90901156-130.90901157S933.26490875 119.27296531 861.09040625 119.27296531a130.67628469 130.67628469 0 0 0-100.33448438 46.83633563 43.66542844 43.66542844 0 0 1-66.87995906-56.05814813A217.71623156 217.71623156 0 0 1 861.09040625 32.00029062C981.41033375 32.00029062 1079.2720925 129.86204938 1079.2720925 250.18197687S981.41033375 468.36366313 861.09040625 468.36366313zM788.36317812 570.1817825a43.63633687 43.63633687 0 0 1-43.63633781 43.63633781h-669.09050344a43.63633687 43.63633687 0 0 1 0-87.27267468h669.09050344a43.63633687 43.63633687 0 0 1 43.63633781 43.63633687zM191.99990281 671.99990281H730.18139469c107.66538937 0 174.54534844 55.73814844 174.54534937 145.45445719 0 96.26175937-78.28358906 174.54534844-174.54534937 174.54534938a173.46898594 173.46898594 0 0 1-125.11992375-52.85815032 168.23262562 168.23262562 0 0 1-10.67635688-12.01453781 43.66542844 43.66542844 0 0 1 67.8108675-54.95269406 89.250855 89.250855 0 0 0 19.25817 17.68726218A86.63267437 86.63267437 0 0 0 730.18139469 904.72703469c48.11633438 0 87.27267469-39.15634031 87.27267468-87.27267469 0-38.60361281-29.35270969-58.1817825-87.27267468-58.1817825H191.99990281a43.63633687 43.63633687 0 1 1 0-87.27267469z" fill="#84A1CB" p-id="26605"></path></svg>