<?xml version="1.0" standalone="no"?><!DOCTYPE svg PUBLIC "-//W3C//DTD SVG 1.1//EN" "http://www.w3.org/Graphics/SVG/1.1/DTD/svg11.dtd"><svg t="1710244093248" class="icon" viewBox="0 0 1024 1024" version="1.1" xmlns="http://www.w3.org/2000/svg" p-id="40698" xmlns:xlink="http://www.w3.org/1999/xlink" width="64" height="64"><path d="M741.1 605.8c-1.5 0-2.9 0.2-4.3 0.4-1.4-0.2-2.8-0.4-4.2-0.4H196.3c-17.6 0-32 14.4-32 32s14.4 32 32 32h536.2c1.3 0 2.6-0.2 3.8-0.4 1.5 0.2 3.1 0.5 4.6 0.5 29.5 0 53.5 24 53.5 53.5s-24 53.5-53.5 53.5c-16.2 0-31.5-7.3-41.7-19.9-11.1-13.7-31.3-15.9-45-4.8-13.8 11.1-15.9 31.3-4.8 45 22.5 27.8 55.8 43.7 91.5 43.7 64.8 0 117.5-52.7 117.5-117.5s-52.5-117.6-117.3-117.6zM597.1 418.7c-1.5 0-2.9-0.2-4.3-0.4-1.4 0.2-2.8 0.4-4.2 0.4H196.3c-17.6 0-32-14.4-32-32s14.4-32 32-32h392.2c1.3 0 2.6 0.2 3.8 0.4 1.5-0.2 3.1-0.5 4.6-0.5 29.5 0 53.5-24 53.5-53.5s-24-53.5-53.5-53.5c-16.2 0-31.5 7.3-41.7 19.9-11.1 13.7-31.3 15.9-45 4.8-13.8-11.1-15.9-31.3-4.8-45 22.5-27.8 55.8-43.7 91.5-43.7 64.8 0 117.5 52.7 117.5 117.5s-52.5 117.6-117.3 117.6z" fill="#99856B" p-id="40699"></path><path d="M223.5 254.3m-40 0a40 40 0 1 0 80 0 40 40 0 1 0-80 0Z" fill="#BAA386" p-id="40700"></path><path d="M393.2 254.3m-40 0a40 40 0 1 0 80 0 40 40 0 1 0-80 0Z" fill="#BAA386" p-id="40701"></path><path d="M220.6 771.7m-40 0a40 40 0 1 0 80 0 40 40 0 1 0-80 0Z" fill="#BAA386" p-id="40702"></path><path d="M392.1 771.7m-40 0a40 40 0 1 0 80 0 40 40 0 1 0-80 0Z" fill="#BAA386" p-id="40703"></path><path d="M556.3 771.7m-40 0a40 40 0 1 0 80 0 40 40 0 1 0-80 0Z" fill="#BAA386" p-id="40704"></path><path d="M220.6 513.4m-40 0a40 40 0 1 0 80 0 40 40 0 1 0-80 0Z" fill="#BAA386" p-id="40705"></path><path d="M800.2 325.3c-0.2-0.2-0.3-0.2-0.5-0.3-5-3.2-10.9-5.1-17.1-5.1h-1.1c-17.3 0-31.4 14.1-31.4 31.5v0.6c0 6.4 1.9 12.3 5.3 17.3 2.7 4.3 6.6 7.8 11.2 10.4 0.5 0.3 1 0.5 1.4 0.8 15.8 9.3 26.6 26.4 26.6 46.2 0 29.4-24 53.4-53.4 53.4-1.6 0-3.2 0.3-4.8 0.5-1.3-0.2-2.4-0.3-3.8-0.3H340.3c-17.6 0-32 14.4-32 31.8 0 17.6 14.4 32 32 32h392.2c1.4 0 2.9-0.2 4.3-0.5 1.4 0.3 2.7 0.5 4.3 0.5 64.8 0 117.4-52.6 117.4-117.4 0.1-43.3-23.4-81.1-58.3-101.4z" fill="#99856B" p-id="40706"></path></svg>