<?xml version="1.0" standalone="no"?><!DOCTYPE svg PUBLIC "-//W3C//DTD SVG 1.1//EN" "http://www.w3.org/Graphics/SVG/1.1/DTD/svg11.dtd"><svg t="1710243941526" class="icon" viewBox="0 0 1024 1024" version="1.1" xmlns="http://www.w3.org/2000/svg" p-id="31911" width="64" height="64" xmlns:xlink="http://www.w3.org/1999/xlink"><path d="M760.073335 893.064817H247.087689a16.191323 16.191323 0 0 1 0-32.382647h512.981598a16.191323 16.191323 0 0 1 0.004048 32.382647zM760.073335 1015.900291H247.087689a16.191323 16.191323 0 0 1 0-32.382647h512.981598a16.191323 16.191323 0 0 1 0.004048 32.382647z" fill="#515151" p-id="31912"></path><path d="M764.971211 291.58954c0.024287-1.262923 0.085004-2.493464 0.085004-3.776626 0-133.266734-108.032557-241.307386-241.303338-241.307386-114.739812 0-210.697689 80.094428-235.195162 187.402423a145.479039 145.479039 0 0 0-11.398691-0.493835c-79.268671 0-143.527985 64.259314-143.527985 143.527985 0 16.976602 2.971108 33.285313 8.391153 48.416104a191.927898 191.927898 0 0 0-35.382089 111.270822c0 105.065497 84.049159 190.474727 188.580342 192.745559v0.11334h370.744872c127.093792 0 230.135373-103.037533 230.135373-230.135373 0.016191-91.630746-53.577089-170.757743-131.129479-207.763013z" fill="#A1A1AD" p-id="31913"></path><path d="M776.730159 291.294049c0.886475 8.176618 1.368167 16.454432 1.368167 24.877968 0 1.210301-0.072861 2.380125-0.085005 3.586378 56.758684 27.144753 99.96523 78.171709 116.72325 140.083281-10.730799-72.917624-55.694104-134.69157-118.006412-168.547627z m-251.908655-250.564775c-114.731717 0-210.689594 80.102524-235.195161 187.398375a153.817571 153.817571 0 0 0-11.398692-0.493835c-79.268671 0-143.527985 64.259314-143.527985 143.527985 0 16.988746 2.971108 33.297456 8.391153 48.428247a191.883372 191.883372 0 0 0-35.382089 111.262726c0 93.399648 66.424904 171.194909 154.594755 188.95679-63.854531-28.56959-108.368527-92.691278-108.368527-167.288752a182.585504 182.585504 0 0 1 33.540326-105.696958 136.310703 136.310703 0 0 1-7.953987-45.987406c0-75.293701 60.911758-136.330942 136.055689-136.330942 3.639 0 7.229426 0.190248 10.80366 0.469549 23.226453-101.932476 114.189307-178.019551 222.954522-178.019551 94.083732 0 174.882482 56.944884 210.013606 138.302235-25.549908-105.858871-120.82775-184.528463-234.52727-184.528463z" fill="#FFFFFF" p-id="31914"></path><path d="M665.965317 745.687345H295.220445c-0.805518 0-1.594845-0.060717-2.367981-0.170009-54.107354-1.691993-104.709287-23.882202-142.686036-62.632086-38.511062-39.288246-59.717648-91.230011-59.717648-146.260271 0-40.696891 11.629418-79.859654 33.710335-113.776429a159.314525 159.314525 0 0 1-6.7194-45.906449c0-87.724589 71.0961-159.160708 158.69116-159.71526 14.483139-50.739559 44.679957-96.463856 86.016404-129.854413C407.69752 50.577646 465.091713 30.318253 523.756925 30.318253c139.913272 0 254.122818 112.173487 257.425848 251.313624 80.005376 42.429363 131.133527 126.778061 131.117336 217.736867-0.008096 135.816867-110.509829 246.318601-246.334792 246.318601z m-368.810009-32.382647h368.810009c117.974029 0 213.94405-95.974069 213.94405-213.94405 0.016191-82.000957-47.833217-157.81278-121.908521-193.162486a16.17918 16.17918 0 0 1-9.212863-14.916257l0.052622-1.708184c0.016191-0.586935 0.040478-1.165775 0.040478-1.764855 0-124.134828-100.985283-225.120111-225.116063-225.12011-105.676719 0-195.902868 71.889475-219.412669 174.817717a16.243945 16.243945 0 0 1-17.053511 12.536132 129.166281 129.166281 0 0 0-10.131721-0.441214c-70.213673 0-127.336662 57.118941-127.336661 127.336662 0 14.713865 2.505607 29.164621 7.44396 42.951533a16.191323 16.191323 0 0 1-2.027963 14.815061 175.473466 175.473466 0 0 0-32.406933 101.916284c0 95.28189 77.491673 174.485795 172.74118 176.562332 0.526218 0.024287 1.052436 0.05667 1.574606 0.121435z" fill="#515151" p-id="31915"></path><path d="M769.367155 289.132507c0.024287-1.258875 0.085004-2.493464 0.085004-3.760435 0-110.157668-73.852673-203.018954-174.720569-231.93261 72.966198 38.527254 122.726182 115.112213 122.726183 203.354925l-0.085005 42.328167c73.864817 35.248511 124.912011 71.897571 124.907963 159.176899 0 121.07062-98.139658 219.218373-219.210277 219.218373h-353.173239v-0.105244c-62.06539-1.356023-116.545145-33.479609-148.782069-81.717608 25.258464 75.022496 95.37499 129.409151 178.493147 131.226627v0.101196h370.752968c127.085696 0 230.131325-103.02539 230.131325-230.135373 0.016191-91.62265-53.573041-170.749647-131.125431-207.754917z" fill="#6E6E96" p-id="31916"></path></svg>