<?xml version="1.0" standalone="no"?><!DOCTYPE svg PUBLIC "-//W3C//DTD SVG 1.1//EN" "http://www.w3.org/Graphics/SVG/1.1/DTD/svg11.dtd"><svg t="1710243981945" class="icon" viewBox="0 0 1024 1024" version="1.1" xmlns="http://www.w3.org/2000/svg" p-id="35308" xmlns:xlink="http://www.w3.org/1999/xlink" width="64" height="64"><path d="M232.078689 699.005902c-110.138754 0-199.428197-89.289443-199.428197-199.428197v-4.028853c0-110.138754 89.289443-199.428197 199.428197-199.428196h85.948852v-69.161967c0-110.138754 89.289443-199.428197 199.428197-199.428197h54.389508c110.138754 0 199.428197 89.289443 199.428197 199.428197v69.161967h35.588196c110.138754 0 199.428197 89.289443 199.428197 199.428196v4.028853c0 110.138754-89.289443 199.428197-199.428197 199.428197h-574.78295z" fill="#ADADAD" p-id="35309"></path><path d="M670.552131 682.219016h33.573771v33.573771h-33.573771z" fill="#000000" p-id="35310"></path><path d="M806.861639 715.792787h-69.161967v-33.573771h69.161967c100.704525 0 182.641311-81.936787 182.641312-182.641311v-4.028853c0-100.704525-81.936787-182.641311-182.641312-182.641311h-35.588196a16.786885 16.786885 0 0 1-16.786886-16.786885v-69.161967c0-100.704525-81.936787-182.641311-182.641311-182.641312h-54.389508c-100.704525 0-182.641311 81.936787-182.641312 182.641312v69.161967a16.786885 16.786885 0 0 1-16.786885 16.786885h-85.948852c-100.704525 0-182.641311 81.936787-182.641312 182.641311v4.028853c0 100.704525 81.936787 182.641311 182.641312 182.641311h404.899672v33.573771h-404.899672c-119.220459 0-216.215082-96.994623-216.215082-216.215082v-4.028853c0-119.220459 96.994623-216.215082 216.215082-216.215082h69.161967v-52.375081c0-119.220459 96.994623-216.215082 216.215082-216.215082h54.389508c119.220459 0 216.215082 96.994623 216.215082 216.215082v52.375081h18.801311c119.220459 0 216.215082 96.994623 216.215082 216.215082v4.028853c0 119.220459-96.994623 216.215082-216.215082 216.215082z" fill="#000000" p-id="35311"></path><path d="M252.844066 816.514098a16.786885 16.786885 0 0 1-16.551869-19.707803l5.92577-33.57377a16.770098 16.770098 0 1 1 33.053377 5.841836l-5.92577 33.57377a16.736525 16.736525 0 0 1-16.501508 13.865967zM235.083541 917.23541a16.786885 16.786885 0 0 1-16.551869-19.707803l5.925771-33.573771a16.786885 16.786885 0 0 1 33.053377 5.841836l-5.925771 33.573771a16.770098 16.770098 0 0 1-16.501508 13.865967zM217.323016 1017.956721a16.786885 16.786885 0 0 1-16.551868-19.707803l5.92577-33.57377a16.786885 16.786885 0 0 1 33.053377 5.841836l-5.92577 33.57377a16.753311 16.753311 0 0 1-16.501509 13.865967zM396.052984 816.514098a16.786885 16.786885 0 0 1-16.551869-19.707803l5.92577-33.57377a16.786885 16.786885 0 0 1 33.053377 5.841836l-5.92577 33.57377a16.736525 16.736525 0 0 1-16.501508 13.865967zM378.309246 917.23541a16.786885 16.786885 0 0 1-16.551869-19.707803l5.925771-33.573771a16.786885 16.786885 0 0 1 33.053377 5.841836l-5.925771 33.573771a16.770098 16.770098 0 0 1-16.501508 13.865967zM360.531934 1017.956721a16.786885 16.786885 0 0 1-16.551868-19.707803l5.92577-33.57377a16.786885 16.786885 0 1 1 33.053377 5.841836l-5.92577 33.57377a16.736525 16.736525 0 0 1-16.501509 13.865967zM534.292984 816.514098a16.786885 16.786885 0 0 1-16.551869-19.707803l5.92577-33.57377a16.786885 16.786885 0 0 1 33.053377 5.841836l-5.92577 33.57377a16.770098 16.770098 0 0 1-16.501508 13.865967zM516.515672 917.23541a16.786885 16.786885 0 0 1-16.551869-19.707803l5.942558-33.573771a16.786885 16.786885 0 0 1 33.053377 5.841836l-5.942558 33.573771a16.736525 16.736525 0 0 1-16.501508 13.865967zM498.771934 1017.956721a16.786885 16.786885 0 0 1-16.551868-19.707803l5.92577-33.57377a16.786885 16.786885 0 1 1 33.053377 5.841836l-5.92577 33.57377a16.770098 16.770098 0 0 1-16.501509 13.865967zM672.516197 816.514098a16.786885 16.786885 0 0 1-16.551869-19.707803l5.92577-33.57377a16.786885 16.786885 0 0 1 33.053377 5.841836l-5.92577 33.57377a16.736525 16.736525 0 0 1-16.501508 13.865967zM654.755672 917.23541a16.786885 16.786885 0 0 1-16.551869-19.707803l5.925771-33.573771a16.786885 16.786885 0 1 1 33.053377 5.841836l-5.925771 33.573771a16.770098 16.770098 0 0 1-16.501508 13.865967zM636.995148 1017.956721a16.786885 16.786885 0 0 1-16.551869-19.707803l5.92577-33.57377a16.786885 16.786885 0 1 1 33.053377 5.841836l-5.92577 33.57377a16.753311 16.753311 0 0 1-16.501508 13.865967zM815.725115 816.514098a16.786885 16.786885 0 0 1-16.551869-19.707803l5.92577-33.57377a16.770098 16.770098 0 1 1 33.053377 5.841836l-5.92577 33.57377a16.736525 16.736525 0 0 1-16.501508 13.865967zM797.981377 917.23541a16.786885 16.786885 0 0 1-16.551869-19.707803l5.925771-33.573771a16.786885 16.786885 0 1 1 33.053377 5.841836l-5.925771 33.573771a16.770098 16.770098 0 0 1-16.501508 13.865967zM780.204066 1017.956721a16.786885 16.786885 0 0 1-16.551869-19.707803l5.92577-33.57377a16.786885 16.786885 0 0 1 33.053377 5.841836l-5.92577 33.57377a16.736525 16.736525 0 0 1-16.501508 13.865967z" fill="#3EBBDD" p-id="35312"></path></svg>