<?xml version="1.0" standalone="no"?><!DOCTYPE svg PUBLIC "-//W3C//DTD SVG 1.1//EN" "http://www.w3.org/Graphics/SVG/1.1/DTD/svg11.dtd"><svg t="1709644803268" class="icon" viewBox="0 0 1024 1024" version="1.1" xmlns="http://www.w3.org/2000/svg" p-id="5261" xmlns:xlink="http://www.w3.org/1999/xlink" width="32" height="32"><path d="M458.666667 106.666667a202.666667 202.666667 0 0 1 122.816 363.904c44.501333 17.066667 84.224 43.114667 116.714666 75.818666-19.114667 7.488-36.736 17.92-52.309333 30.762667C597.76 536.874667 531.648 512 458.666667 512 311.381333 512 192 613.312 192 738.282667c0 85.674667 250.773333 112.618667 408.405333 80.789333a192.810667 192.810667 0 0 0 47.04 55.68C453.098667 924.138667 128 887.466667 128 764.8c0-133.376 86.037333-247.509333 207.850667-294.208A202.666667 202.666667 0 0 1 458.666667 106.666667z m298.666666 469.333333a32 32 0 0 1 32 32V682.666667h74.666667a32 32 0 0 1 0 64H789.333333v74.666666a32 32 0 0 1-64 0V746.666667h-74.666666a32 32 0 0 1 0-64H725.333333v-74.666667a32 32 0 0 1 32-32zM457.088 167.893333a138.666667 138.666667 0 1 0 0 277.333334 138.666667 138.666667 0 0 0 0-277.333334z" fill="#2c2c2c" p-id="5262"></path></svg>