<?xml version="1.0" standalone="no"?><!DOCTYPE svg PUBLIC "-//W3C//DTD SVG 1.1//EN" "http://www.w3.org/Graphics/SVG/1.1/DTD/svg11.dtd"><svg t="1709644825871" class="icon" viewBox="0 0 1121 1024" version="1.1" xmlns="http://www.w3.org/2000/svg" p-id="6318" xmlns:xlink="http://www.w3.org/1999/xlink" width="35.03125" height="32"><path d="M871.164309 0a137.552259 137.552259 0 0 1 137.552259 137.552259v504.358285a137.552259 137.552259 0 0 1-137.552259 137.552259h-286.567207a45.850753 45.850753 0 0 0-21.549854 5.410389l-266.392875 142.045633A45.850753 45.850753 0 0 1 229.253766 886.43261V779.462803H137.552259a137.552259 137.552259 0 0 1-137.552259-137.552259V137.552259a137.552259 137.552259 0 0 1 137.552259-137.552259h733.61205z m0 91.701506H137.552259a45.850753 45.850753 0 0 0-45.850753 45.850753v504.358285a45.850753 45.850753 0 0 0 45.850753 45.850753h160.477636a22.925377 22.925377 0 0 1 22.925377 22.925376v99.358582l219.1666-116.91942a45.850753 45.850753 0 0 1 21.549854-5.364538H871.164309a45.850753 45.850753 0 0 0 45.850753-45.850753V137.552259a45.850753 45.850753 0 0 0-45.850753-45.850753z m-343.880648 137.55226a22.925377 22.925377 0 0 1 22.925376 22.925376l-0.04585 114.626883H664.83592a22.925377 22.925377 0 0 1 22.925377 22.925376v45.850754a22.925377 22.925377 0 0 1-22.925377 22.925376h-114.672733L550.209037 573.134414a22.925377 22.925377 0 0 1-22.925376 22.925376h-45.850753a22.925377 22.925377 0 0 1-22.925377-22.925376l-0.045851-114.626883H343.880648a22.925377 22.925377 0 0 1-22.925376-22.925376v-45.850754a22.925377 22.925377 0 0 1 22.925376-22.925376h114.581032L458.507531 252.179142a22.925377 22.925377 0 0 1 22.925377-22.925376h45.850753z" fill="#2c2c2c" p-id="6319"></path></svg>